<?xml version="1.0" encoding="UTF-8"?>
<svg id="Layer_1" xmlns="http://www.w3.org/2000/svg" version="1.1" viewBox="0 0 64 64" fill="#E6E6E6">
  <g id="d">
    <g id="e">
      <path d="M37.5,53.6c0,.5-.4.9-.9.9s-.9-.4-.9-.9.4-.9.9-.9.9.4.9.9ZM35.7,55.8c-.3,0-.5.1-.7.2,0-.1,0-.2,0-.4,0-.6-.5-1.1-1.1-1.1s-1.1.5-1.1,1.1.5,1.1,1.1,1.1.4,0,.6-.2c0,.1,0,.3,0,.4,0,.7.5,1.2,1.2,1.2s1.2-.5,1.2-1.2-.5-1.2-1.2-1.2h0ZM33.6,58.5c0-.7-.6-1.3-1.4-1.3s-.2,0-.4,0c.2-.2.4-.5.4-.9,0-.7-.6-1.3-1.3-1.3s-1.3.6-1.3,1.3.6,1.3,1.3,1.3.2,0,.3,0c-.2.3-.4.6-.4,1,0,.6.4,1.2,1,1.3,0,0,0,0,0,0,0,.8.7,1.5,1.5,1.5s1.5-.7,1.5-1.5-.5-1.3-1.2-1.5c0,0,0,0,0,0ZM30.1,59.9c0-.2.1-.4.1-.5,0-.8-.6-1.4-1.4-1.5.2-.2.3-.5.3-.9,0-.7-.5-1.2-1.1-1.4.3-.2.5-.6.5-1s-.3-.9-.7-1.2c.7,0,1.2-.6,1.2-1.2s-.6-1.2-1.2-1.2-1.2.6-1.2,1.2.3.9.6,1.1c-.7,0-1.3.6-1.3,1.3s.4,1.1,1,1.3c-.3.3-.6.7-.6,1.1,0,.7.5,1.3,1.3,1.4-.2.3-.4.6-.4,1,0,.7.5,1.3,1.2,1.5-.1.2-.2.5-.2.8,0,1,.8,1.7,1.7,1.7s1.7-.8,1.7-1.7-.7-1.6-1.5-1.7c0,0,0,0,0,0ZM12.4,49.2c0,.6-.4,1.1-.9,1.4,0,0,.2,0,.3,0,.9,0,1.6.7,1.6,1.6s0,.5-.2.7c.3-.2.6-.4,1.1-.4.9,0,1.6.7,1.6,1.6.2-.7.8-1.2,1.5-1.2-.2-.2-.3-.5-.3-.8,0-.8.6-1.4,1.4-1.4s1.4.6,1.4,1.4-.6,1.3-1.3,1.4c.2.3.4.6.4,1s-.2.8-.4,1.1c.3.3.5.7.5,1.1,0-.4.2-.8.5-1.1-.3-.3-.6-.7-.6-1.2,0-.8.6-1.4,1.4-1.5-.2-.2-.3-.5-.3-.9,0-.5.3-.9.7-1.2-.6,0-1.1-.6-1.1-1.2s.6-1.3,1.3-1.3,1.3.6,1.3,1.3-.2.8-.6,1c.7,0,1.2.7,1.2,1.4s-.5,1.3-1.2,1.4c.3.3.4.6.4,1s-.2.8-.4,1.1c.4.3.7.8.7,1.3s-.1.6-.2.8c.6.3.9.9.9,1.6s0,.4-.1.6c.2,0,.4.2.5.3-.2-.3-.3-.6-.3-.9s.1-.7.3-1c-.6-.2-1-.8-1-1.4s.2-.9.5-1.2c-.4-.2-.7-.7-.7-1.2s.6-1.4,1.3-1.4c-.3-.2-.5-.6-.5-1s.3-1,.8-1.2c0,0-.1,0-.2,0-.7,0-1.2-.6-1.2-1.2s.6-1.2,1.2-1.2,1.2.6,1.2,1.2-.3.9-.7,1.1c0,0,.2,0,.2,0,.7,0,1.3.6,1.3,1.3s-.5,1.2-1.2,1.3c.3.3.6.7.6,1.1s-.2.8-.4,1c.5.3.9.8.9,1.4s-.1.6-.3.8c.7.2,1.2.8,1.2,1.6s0,.4-.1.6c.8.2,1.4.9,1.4,1.8s-.9,1.9-1.9,1.9-1.6-.7-1.8-1.5c-.2.9-1,1.7-2,1.7s-1.5-.5-1.8-1.2c-.3.8-1.1,1.3-2,1.3s-1.5-.5-1.9-1.1c-.4.7-1.1,1.2-1.9,1.2s-1.5-.5-1.9-1.1c-.4.7-1.1,1.1-1.9,1.1s-1.8-.6-2.1-1.5c-.4.4-1,.7-1.6.7-1.3,0-2.3-1-2.3-2.3s0-.2,0-.3c-.2,0-.5.1-.7.1-1.2,0-2.3-1-2.3-2.3s.2-.9.5-1.3c-1.1-.1-2-1-2-2.1s.5-1.6,1.3-2c-.6-.4-1.1-1-1.1-1.8,0-1.1.9-2.1,2.1-2.1-.4-.4-.6-.9-.6-1.4,0-1.1.9-2.1,2.1-2.1s0,0,0,0c-.4-.4-.7-.9-.7-1.5,0-1.1.9-2,2-2s.2,0,.2,0c-.5-.4-.8-.9-.8-1.5,0-1.1.9-2,2-2s.2,0,.4,0c-.5-.4-.9-.9-.9-1.6,0-1.1.9-2,2-2s.3,0,.5.1c-.6-.3-1-.9-1-1.6,0-1.1.9-1.9,1.9-1.9s.4,0,.6.1c-.6-.3-1.1-1-1.1-1.7s.9-1.9,1.9-1.9,1.1.3,1.4.6c.2,0,.5-.2.7-.2.6,0,1.1.3,1.4.7.2-.1.5-.2.7-.2.6,0,1.1.3,1.4.8.2-.1.5-.2.7-.2.7,0,1.3.5,1.4,1.1.1,0,.3,0,.5,0,.7,0,1.4.6,1.4,1.4s-.2.7-.5,1c.1,0,.3,0,.5,0,.7,0,1.2.5,1.2,1.2s-.1.6-.3.8c.2-.2.4-.3.7-.3.6,0,1.1.5,1.1,1.1s-.5,1.1-1.1,1.1-1.1-.5-1.1-1.1.1-.6.3-.7c-.2.2-.5.3-.8.3-.7,0-1.2-.5-1.2-1.2s.1-.6.4-.8c-.2,0-.3.1-.5.1-.6,0-1.1-.4-1.3-.9-.2,0-.4.2-.6.2-.5,0-.9-.2-1.2-.6-.3.2-.6.3-.9.3s-.9-.2-1.2-.5c-.3.2-.6.3-.9.3s-.9-.2-1.2-.5c-.3.2-.6.3-.9.3s-.4,0-.6-.1c.2,0,.4.2.5.3.3-.1.5-.2.8-.2.5,0,1,.2,1.3.6.3-.2.5-.3.9-.3.5,0,1,.3,1.3.7.2-.2.5-.3.9-.3.6,0,1.2.4,1.4,1,.2,0,.4-.1.6-.1.8,0,1.4.6,1.4,1.4s-.1.5-.2.7c.1,0,.2,0,.3,0,.7,0,1.2.5,1.2,1.2s0,.4-.1.5c.2,0,.3-.2.5-.2.6,0,1.1.5,1.1,1.1s-.5,1.1-1.1,1.1-1.1-.5-1.1-1.1,0-.3,0-.4c-.2.1-.4.2-.6.2-.7,0-1.2-.5-1.2-1.2s0-.4.2-.6c-.1,0-.3,0-.4,0-.5,0-1-.3-1.2-.8-.2.1-.5.2-.7.2-.4,0-.8-.2-1.1-.5-.3.2-.7.4-1.1.4s-.8-.2-1.1-.4c-.3.2-.7.4-1.1.4s-.5,0-.7-.1c.2,0,.4.2.5.4.3-.2.6-.4,1-.4s.9.2,1.2.6c.3-.2.6-.4,1-.4.6,0,1.1.4,1.4.9.2-.1.4-.2.7-.2.8,0,1.4.6,1.4,1.4s0,.3,0,.5c0,0,.2,0,.3,0,.7,0,1.2.6,1.2,1.2s0,.2,0,.3c.2,0,.3-.2.5-.2.6,0,1.1.5,1.1,1.1s-.5,1.1-1.1,1.1-1.1-.5-1.1-1.1,0-.2,0-.3c-.2.1-.4.2-.7.2-.7,0-1.2-.6-1.2-1.2s0-.3,0-.4c-.1,0-.2,0-.4,0-.5,0-.9-.3-1.2-.7-.2.2-.5.3-.9.3s-.8-.2-1-.4c-.1.2-.3.3-.5.4,0,0,.2,0,.3,0,.6,0,1,.3,1.3.8.2-.2.5-.3.8-.3.8,0,1.4.6,1.4,1.4s0,.2,0,.3c0,0,.2,0,.3,0,.7,0,1.2.6,1.2,1.2s0,.1,0,.2c.2,0,.3-.2.6-.2.6,0,1.1.5,1.1,1.1s-.5,1.1-1.1,1.1-1.1-.5-1.1-1.1,0,0,0,0c-.2.1-.4.2-.7.2-.7,0-1.2-.6-1.2-1.2s0-.1,0-.2c-.1,0-.3,0-.4,0-.5,0-.9-.2-1.1-.6-.3.2-.6.4-1,.4s-.7-.2-1-.4c0,0-.1.2-.2.2.5,0,.9.3,1.2.7.2-.2.6-.3.9-.3.8,0,1.4.6,1.4,1.4s0,0,0,0c0,0,.2,0,.3,0,.7,0,1.2.6,1.2,1.2s-.6,1.2-1.2,1.2-1.2-.5-1.2-1.2c-.1,0-.3,0-.5,0-.4,0-.8-.2-1.1-.5-.3.3-.7.5-1.1.5s-.7-.1-.9-.3c0,0,0,.1-.1.2.4,0,.8.3,1,.6.3-.3.6-.4,1-.4.8,0,1.4.6,1.4,1.4s-.6,1.4-1.4,1.4-.8-.2-1-.4c-.3.4-.7.6-1.2.6M11.7,57.4c.3.2.6.5.8.9,0,0,0-.2.2-.2-.2-.3-.4-.7-.4-1.1-.1.2-.3.3-.5.4,0,0,0,0,0,0ZM15.6,57.9c.2.2.4.4.5.6,0,0,.1-.2.2-.3-.2-.2-.4-.5-.5-.8,0,.1-.1.3-.2.4,0,0,0,0,0,0ZM19.2,57.1c0,.2,0,.5-.2.7.3.3.6.6.7,1.1,0-.2.1-.4.3-.6-.4-.3-.7-.7-.7-1.2,0,0,0,0,0,0ZM15.2,55.5c.3.2.5.5.6.8.1-.3.3-.6.5-.8-.2-.3-.4-.6-.4-1-.1.4-.4.7-.7,1,0,0,0,0,0,0ZM11.8,53.9c-.6,0-1.1-.3-1.4-.8,0,0,0,.1,0,.2,0,.3,0,.6-.2.9.2,0,.4-.1.6-.1,1,0,1.8.8,1.8,1.8.1-.2.3-.3.5-.4-.3-.3-.5-.7-.5-1.2s0-.5.2-.7c-.3.2-.7.4-1.1.4ZM10.8,50.9c-.4,0-.8-.2-1.1-.4-.1.4-.4.8-.8,1,.6,0,1,.4,1.3.9,0,0,0,0,0-.1,0-.6.4-1.1.9-1.4,0,0-.2,0-.3,0h0ZM13,38.9c-.4,0-.7-.1-1-.4,0,0-.2.1-.2.2.4,0,.8.2,1.1.5.1-.1.3-.3.5-.3-.1,0-.2,0-.3,0,0,0,0,0,0,0ZM11.5,35.5c-.1,0-.3-.2-.4-.3,0,0-.1.1-.2.1.2,0,.4,0,.6.1ZM12.9,28.5c.3,0,.5,0,.8-.2.3.3.8.6,1.3.6s.6,0,.8-.2c.3.4.7.6,1.2.6s.6,0,.8-.2c.3.4.7.7,1.2.7s.4,0,.5-.1c.1.6.6,1,1.3,1s1.2-.5,1.3-1.2c.2.4.6.8,1.1.8s1.2-.5,1.2-1.2-.5-1.2-1.2-1.2-1.1.5-1.1,1c-.2-.5-.7-1-1.3-1s-.3,0-.4,0c-.1-.7-.7-1.3-1.4-1.3s-.4,0-.6.1c-.3-.5-.8-.9-1.4-.9s-.4,0-.6.1c-.3-.5-.8-.8-1.4-.8s-.4,0-.6.1c-.3-.5-.9-.8-1.5-.8-1,0-1.9.8-1.9,1.9s.8,1.9,1.9,1.9c0,0,0,0,0,0ZM14.4,25c.2,0,.4,0,.6-.1.3.4.8.7,1.4.7s.5,0,.7-.1c.3.4.8.7,1.3.7s.5,0,.7-.1c.2.5.7.8,1.3.8s.3,0,.5,0c0,.7.6,1.2,1.3,1.2s1.1-.4,1.3-.9c.2.4.6.7,1.1.7s1.2-.5,1.2-1.2-.5-1.2-1.2-1.2-.9.3-1.1.7c-.2-.5-.7-.9-1.2-.9s-.2,0-.3,0c0-.8-.7-1.4-1.5-1.4s-.3,0-.5,0c-.2-.6-.8-1-1.5-1s-.3,0-.4,0c-.3-.6-.9-1-1.5-1s-.3,0-.4,0c-.3-.5-.9-.9-1.6-.9-1,0-1.9.8-1.9,1.9s.8,1.9,1.9,1.9c0,0,0,0,0,0ZM15.9,21.4c.2,0,.3,0,.5,0,.3.5.8.9,1.4.9s.3,0,.5-.1c.3.5.8.9,1.4.9s.4,0,.5-.1c.2.6.7,1,1.4,1s.3,0,.4,0c0,0,0,0,0,0,0,.7.6,1.3,1.3,1.3s.9-.3,1.2-.7c.2.4.6.7,1.1.7s1.2-.5,1.2-1.2-.5-1.2-1.2-1.2-.8.2-1,.6c-.2-.5-.7-.9-1.2-.9s-.2,0-.3,0c0,0,0,0,0-.2,0-.8-.6-1.4-1.4-1.4s-.3,0-.4,0c-.2-.7-.8-1.2-1.5-1.2s-.2,0-.3,0c-.2-.7-.9-1.1-1.6-1.1s-.2,0-.3,0c-.3-.6-.9-1.1-1.7-1.1s-1.8.8-1.8,1.8.8,1.8,1.8,1.8c0,0,0,0,0,0ZM17.4,17.9c.1,0,.2,0,.3,0,.3.6.8,1,1.5,1s.3,0,.4,0c.2.6.8,1.1,1.5,1.1s.3,0,.4,0c.1.7.7,1.2,1.4,1.2s.2,0,.4,0c0,0,0,.2,0,.2,0,.7.6,1.3,1.3,1.3s.8-.2,1.1-.6c.2.5.6.8,1.1.8s1.2-.5,1.2-1.2-.5-1.2-1.2-1.2-.7.2-.9.5c-.2-.6-.6-1-1.2-1s-.2,0-.3,0c0-.1,0-.2,0-.3,0-.8-.6-1.4-1.4-1.4s-.2,0-.3,0c0-.8-.7-1.4-1.5-1.4s-.2,0-.2,0c-.2-.7-.8-1.3-1.6-1.3s-.1,0-.2,0c-.2-.7-.9-1.2-1.7-1.2s-1.8.8-1.8,1.8.8,1.8,1.8,1.8c0,0,0,0,0,0ZM18.8,14.3c0,0,.1,0,.2,0,.2.7.8,1.2,1.6,1.2s.2,0,.3,0c.1.7.7,1.2,1.5,1.2s.2,0,.3,0c0,.7.6,1.3,1.4,1.3s.2,0,.3,0c0,.1,0,.3,0,.4,0,.7.6,1.3,1.3,1.3s.9-.3,1.2-.7c0,0,0,0,0,.1,0,.7.5,1.2,1.2,1.2s1.2-.5,1.2-1.2-.5-1.2-1.2-1.2-.9.3-1.1.7c0,0,0-.1,0-.2,0-.7-.6-1.3-1.3-1.3s-.2,0-.3,0c0-.2.1-.3.1-.5,0-.8-.6-1.4-1.4-1.4s-.1,0-.2,0c0,0,0,0,0,0,0-.8-.7-1.5-1.5-1.5s0,0-.1,0c-.1-.8-.8-1.5-1.6-1.5s0,0,0,0c-.2-.8-.9-1.4-1.7-1.4s-1.8.8-1.8,1.8.8,1.8,1.8,1.8c0,0,0,0,0,0ZM20.3,10.8c0,0,.1,0,.2,0,.1.8.8,1.4,1.6,1.4s.2,0,.3,0c0,.8.7,1.5,1.5,1.5s.3,0,.5,0c0,0,0,.2,0,.3,0,.8.6,1.4,1.4,1.4s.4,0,.6-.2c-.2.2-.3.5-.3.8,0,.7.6,1.3,1.3,1.3s1.3-.6,1.3-1.3-.6-1.3-1.3-1.3-.4,0-.6.1c.2-.2.3-.5.3-.9,0-.8-.6-1.4-1.4-1.4s-.3,0-.4,0c0-.1,0-.2,0-.4,0-.8-.7-1.5-1.5-1.5s-.1,0-.2,0c0,0,0,0,0,0,0-.9-.7-1.6-1.6-1.6s0,0,0,0c0-.9-.8-1.6-1.7-1.6s-1.7.8-1.7,1.7.8,1.7,1.7,1.7c0,0,0,0,0,0ZM22.5,7.6c.1,0,.2,0,.3,0,0,0,0,.1,0,.2,0,.9.7,1.6,1.6,1.6s.3,0,.5-.1c0,.1,0,.3,0,.4,0,.8.7,1.5,1.5,1.5s.6-.1.9-.3c-.2.3-.4.6-.4,1,0,.8.7,1.5,1.5,1.5s1.5-.7,1.5-1.5-.7-1.5-1.5-1.5-.6.1-.8.3c.2-.3.4-.6.4-1,0-.8-.7-1.5-1.5-1.5s-.3,0-.4,0c0-.2.1-.3.1-.5,0-.9-.7-1.6-1.6-1.6s-.2,0-.3,0c0,0,0-.2,0-.2,0-.9-.8-1.7-1.7-1.7s-1.7.8-1.7,1.7.8,1.7,1.7,1.7h0s0,0,0,0ZM25.5,5.2c.2,0,.4,0,.5-.1,0,.2-.2.4-.2.7,0,.9.7,1.6,1.6,1.6s1.6-.7,1.6-1.6-.7-1.6-1.6-1.6-.3,0-.5.1c.1-.2.2-.5.2-.7,0-.9-.8-1.7-1.7-1.7s-1.7.8-1.7,1.7.8,1.7,1.7,1.7h0ZM29,3.7c.9,0,1.7-.7,1.7-1.7s-.7-1.7-1.7-1.7-1.7.7-1.7,1.7.7,1.7,1.7,1.7ZM32.8,3.2c.9,0,1.6-.7,1.6-1.6s-.7-1.6-1.6-1.6-1.6.7-1.6,1.6.7,1.6,1.6,1.6ZM36.5,3.9c.9,0,1.6-.7,1.6-1.6s-.7-1.6-1.6-1.6-1.6.7-1.6,1.6.7,1.6,1.6,1.6ZM41.3,7c-.1,0-.3,0-.5,0-.9,0-1.6.7-1.6,1.6s0,.4.1.6c-.1,0-.2,0-.3,0-.9,0-1.6.7-1.6,1.6s.1.6.3.9c-.1,0-.2,0-.3,0-.9,0-1.6.7-1.6,1.6s.2.7.4,1c-.1,0-.3,0-.4,0-.8,0-1.5.7-1.5,1.5s.7,1.5,1.5,1.5,1.5-.7,1.5-1.5-.1-.7-.4-1c.1,0,.3,0,.5,0,.9,0,1.6-.7,1.6-1.6s-.1-.6-.3-.9c.1,0,.2,0,.3,0,.9,0,1.6-.7,1.6-1.6s0-.4-.1-.6c.1,0,.2,0,.3,0,.9,0,1.6-.7,1.6-1.6s0-.3,0-.5c.1,0,.3,0,.4,0,.8,0,1.5-.7,1.5-1.5s-.7-1.5-1.5-1.5-1.5.7-1.5,1.5,0,.3,0,.4h0s0,0,0,0ZM56.9,41.5c0,.7.5,1.2,1.2,1.2s1.2-.5,1.2-1.2-.5-1.2-1.2-1.2-1.2.5-1.2,1.2ZM58.4,45c0,.6.5,1.2,1.2,1.2s1.2-.5,1.2-1.2-.5-1.2-1.2-1.2-1.2.5-1.2,1.2ZM59.9,48.5c0,.6.5,1.1,1.1,1.1s1.1-.5,1.1-1.1-.5-1.1-1.1-1.1-1.1.5-1.1,1.1ZM61.4,52.1c0,.6.5,1.1,1.1,1.1s1.1-.5,1.1-1.1-.5-1.1-1.1-1.1-1.1.5-1.1,1.1ZM62.6,54.8c-.6,0-1,.5-1,1s.5,1,1,1,1-.5,1-1-.5-1-1-1ZM61,58.3c-.5,0-1,.4-1,1s.4,1,1,1,1-.4,1-1-.4-1-1-1ZM58.3,61c-.5,0-.9.4-.9.9s.4.9.9.9.9-.4.9-.9-.4-.9-.9-.9ZM55.3,61.8c-.6,0-1.1.5-1.1,1.1s.5,1.1,1.1,1.1,1.1-.5,1.1-1.1-.5-1.1-1.1-1.1h0ZM29.4,4.8c0,.9.7,1.6,1.6,1.6s1.6-.7,1.6-1.6-.7-1.6-1.6-1.6-1.6.7-1.6,1.6ZM33,5c0,.9.7,1.6,1.6,1.6s1.6-.7,1.6-1.6-.7-1.6-1.6-1.6-1.6.7-1.6,1.6ZM38,4.7c-.9,0-1.6.7-1.6,1.6s.2.8.4,1c-.2,0-.4-.1-.6-.1-.9,0-1.6.7-1.6,1.6s.7,1.6,1.6,1.6,1.6-.7,1.6-1.6-.2-.7-.4-1c.2,0,.4.1.6.1.9,0,1.6-.7,1.6-1.6s-.1-.6-.3-.9c.2,0,.4.2.7.2.9,0,1.6-.7,1.6-1.6s-.7-1.6-1.6-1.6-1.6.7-1.6,1.6.1.6.3.8c-.2-.1-.4-.2-.7-.2,0,0,0,0,0,0ZM56.9,43.7c-.7,0-1.2.5-1.2,1.2s.5,1.2,1.2,1.2,1.2-.5,1.2-1.2-.5-1.2-1.2-1.2ZM59.5,48.2c0-.6-.5-1.2-1.2-1.2s-1.2.5-1.2,1.2.5,1.2,1.2,1.2,1.2-.5,1.2-1.2ZM60.8,51.6c0-.6-.5-1.1-1.1-1.1s-1.1.5-1.1,1.1.5,1.1,1.1,1.1,1.1-.5,1.1-1.1ZM60.6,56.1c.6,0,1.1-.5,1.1-1.1s-.5-1.1-1.1-1.1-1.1.5-1.1,1.1.5,1.1,1.1,1.1ZM31,8.2c0-.9-.7-1.5-1.5-1.5s-1.5.7-1.5,1.5.7,1.5,1.5,1.5,1.5-.7,1.5-1.5ZM32.9,6.3c-.9,0-1.6.7-1.6,1.6s.7,1.6,1.6,1.6,1.6-.7,1.6-1.6-.7-1.6-1.6-1.6ZM54.5,48.1c0,.7.5,1.2,1.2,1.2s1.2-.5,1.2-1.2-.5-1.2-1.2-1.2-1.2.5-1.2,1.2ZM55.9,51.2c0,.6.5,1.1,1.1,1.1s1.1-.5,1.1-1.1-.5-1.1-1.1-1.1-1.1.5-1.1,1.1ZM59.3,54.4c0-.6-.5-1.1-1.1-1.1s-1.1.5-1.1,1.1.5,1.1,1.1,1.1,1.1-.5,1.1-1.1ZM59.2,56.9c-.6,0-1,.5-1,1s.5,1,1,1,1-.5,1-1-.5-1-1-1ZM33.3,54.7c.6,0,1.1-.5,1.1-1.1s-.5-1.1-1.1-1.1-1.1.5-1.1,1.1.5,1.1,1.1,1.1ZM30.5,55c.7,0,1.2-.6,1.2-1.2s-.6-1.2-1.2-1.2-1.2.6-1.2,1.2.6,1.2,1.2,1.2ZM31.5,12.5c.8,0,1.5-.7,1.5-1.5s-.7-1.5-1.5-1.5-1.5.7-1.5,1.5.7,1.5,1.5,1.5ZM36.2,11.4c0-.8-.7-1.5-1.5-1.5s-1.5.7-1.5,1.5.7,1.5,1.5,1.5,1.5-.7,1.5-1.5ZM53.1,46.9c-.7,0-1.2.5-1.2,1.2s.5,1.2,1.2,1.2,1.2-.5,1.2-1.2-.5-1.2-1.2-1.2ZM53.2,51.1c0,.6.5,1.2,1.2,1.2s1.2-.5,1.2-1.2-.5-1.2-1.2-1.2-1.2.5-1.2,1.2ZM56.7,54.1c0-.6-.5-1.1-1.1-1.1s-1.1.5-1.1,1.1.5,1.1,1.1,1.1,1.1-.5,1.1-1.1ZM57.2,58.2c.6,0,1-.5,1-1s-.5-1-1-1-1,.5-1,1,.5,1,1,1ZM58.4,60c0-.5-.4-1-1-1s-1,.4-1,1,.4,1,1,1,1-.4,1-1ZM32.7,51.2c0-.6-.5-1.2-1.2-1.2s-1.2.5-1.2,1.2.5,1.2,1.2,1.2,1.2-.5,1.2-1.2ZM15.7,52.9c.8,0,1.5-.6,1.5-1.5s-.6-1.5-1.5-1.5-1.5.7-1.5,1.5.6,1.5,1.5,1.5ZM15.3,49.1c0-.8-.7-1.5-1.5-1.5s-1.5.7-1.5,1.5.7,1.5,1.5,1.5,1.5-.7,1.5-1.5ZM28.7,14.4c0,.8.6,1.4,1.4,1.4s1.4-.6,1.4-1.4-.6-1.4-1.4-1.4-1.4.6-1.4,1.4ZM31.7,14.2c0,.8.6,1.4,1.4,1.4s1.4-.6,1.4-1.4-.6-1.4-1.4-1.4-1.4.6-1.4,1.4ZM50.7,51.2c0,.7.5,1.2,1.2,1.2s1.2-.5,1.2-1.2-.5-1.2-1.2-1.2-1.2.5-1.2,1.2ZM54.1,54c0-.6-.5-1.1-1.1-1.1s-1.1.5-1.1,1.1.5,1.1,1.1,1.1,1.1-.5,1.1-1.1ZM54.8,55.7c-.6,0-1,.5-1,1s.5,1,1,1,1-.5,1-1-.5-1-1-1ZM55.2,58.3c-.5,0-1,.4-1,1s.4,1,1,1,1-.4,1-1-.4-1-1-1ZM35.5,51.8c0-.5-.4-1-1-1s-1,.4-1,1,.4,1,1,1,1-.4,1-1ZM32.2,49.5c0,.6.5,1,1,1s1-.5,1-1-.5-1-1-1-1,.5-1,1ZM29.6,50.9c.6,0,1.1-.5,1.1-1.1s-.5-1.1-1.1-1.1-1.1.5-1.1,1.1.5,1.1,1.1,1.1ZM26.8,50.9c.6,0,1.2-.5,1.2-1.2s-.5-1.2-1.2-1.2-1.2.5-1.2,1.2.5,1.2,1.2,1.2ZM18.4,50.6c.7,0,1.3-.6,1.3-1.3s-.6-1.3-1.3-1.3-1.3.6-1.3,1.3.6,1.3,1.3,1.3ZM17.8,47.3c0-.7-.6-1.2-1.2-1.2s-1.2.6-1.2,1.2.6,1.2,1.2,1.2,1.2-.6,1.2-1.2ZM23.4,31.7c0-.7-.5-1.2-1.2-1.2s-1.2.5-1.2,1.2.5,1.2,1.2,1.2,1.2-.5,1.2-1.2ZM30.3,18.7c.7,0,1.3-.6,1.3-1.3s-.6-1.3-1.3-1.3-1.3.6-1.3,1.3.6,1.3,1.3,1.3ZM33.1,16.1c-.7,0-1.3.6-1.3,1.3s.6,1.3,1.3,1.3,1.3-.6,1.3-1.3-.6-1.3-1.3-1.3ZM49.7,51.1c-.7,0-1.2.5-1.2,1.2s.5,1.2,1.2,1.2,1.2-.5,1.2-1.2-.5-1.2-1.2-1.2ZM50.8,56c.6,0,1.1-.5,1.1-1.1s-.5-1.1-1.1-1.1-1.1.5-1.1,1.1.5,1.1,1.1,1.1ZM53.6,57.3c0-.6-.5-1.1-1.1-1.1s-1,.5-1,1.1.5,1.1,1,1.1,1.1-.5,1.1-1.1ZM53,59.3c-.5,0-1,.4-1,1s.4,1,1,1,1-.4,1-1-.4-1-1-1ZM31.7,46.8c-.6,0-1,.5-1,1s.5,1,1,1,1-.5,1-1-.5-1-1-1ZM29.1,48.4c.6,0,1-.5,1-1s-.5-1-1-1-1,.5-1,1,.5,1,1,1ZM26.5,48.4c.6,0,1.1-.5,1.1-1.1s-.5-1.1-1.1-1.1-1.1.5-1.1,1.1.5,1.1,1.1,1.1ZM23.9,48.4c.6,0,1.1-.5,1.1-1.1s-.5-1.1-1.1-1.1-1.1.5-1.1,1.1.5,1.1,1.1,1.1ZM21.3,48.3c.6,0,1.1-.5,1.1-1.1s-.5-1.1-1.1-1.1-1.1.5-1.1,1.1.5,1.1,1.1,1.1ZM20.4,45.6c0-.6-.5-1.1-1.1-1.1s-1.1.5-1.1,1.1.5,1.1,1.1,1.1,1.1-.5,1.1-1.1ZM23.7,34.6c.6,0,1.1-.5,1.1-1.1s-.5-1.1-1.1-1.1-1.1.5-1.1,1.1.5,1.1,1.1,1.1ZM23.7,31.1c0,.6.5,1,1,1s1-.5,1-1-.5-1-1-1-1,.5-1,1ZM24.7,28.7c0,.6.5,1,1,1s1-.5,1-1-.5-1-1-1-1,.5-1,1ZM25.8,26.3c0,.6.5,1.1,1.1,1.1s1.1-.5,1.1-1.1-.5-1.1-1.1-1.1-1.1.5-1.1,1.1ZM26.8,23.9c0,.6.5,1.1,1.1,1.1s1.1-.5,1.1-1.1-.5-1.1-1.1-1.1-1.1.5-1.1,1.1ZM28,21.6c0,.6.5,1.1,1.1,1.1s1.1-.5,1.1-1.1-.5-1.1-1.1-1.1-1.1.5-1.1,1.1ZM32.5,20.4c0-.6-.5-1.1-1.1-1.1s-1.1.5-1.1,1.1.5,1.1,1.1,1.1,1.1-.5,1.1-1.1ZM35,21.1c0-.7-.5-1.2-1.2-1.2s-1.2.6-1.2,1.2.5,1.2,1.2,1.2,1.2-.5,1.2-1.2ZM49.8,59c0,.6.5,1.1,1.1,1.1s1.1-.5,1.1-1.1-.5-1.1-1.1-1.1-1.1.5-1.1,1.1ZM36.2,51.8c.5,0,.9-.4.9-.9s-.4-.9-.9-.9-.9.4-.9.9.4.9.9.9ZM35.2,47.9c-.5,0-.8.4-.8.8s.4.8.8.8.8-.4.8-.8-.4-.8-.8-.8ZM33.6,46.1c-.4,0-.8.4-.8.8s.4.8.8.8.8-.4.8-.8-.4-.8-.8-.8ZM31.5,46.4c.4,0,.8-.4.8-.8s-.4-.8-.8-.8-.8.4-.8.8.4.8.8.8ZM29.2,45.7c.4,0,.8-.3.8-.8s-.3-.8-.8-.8-.8.3-.8.8.3.8.8.8ZM26,44.9c0,.4.4.8.8.8s.8-.4.8-.8-.4-.8-.8-.8-.8.4-.8.8ZM24.3,44.1c-.4,0-.8.4-.8.8s.4.8.8.8.8-.4.8-.8-.4-.8-.8-.8ZM23,44c0-.4-.4-.8-.8-.8s-.8.4-.8.8.4.8.8.8.8-.4.8-.8ZM21.5,41.7c0,.4.4.8.8.8s.8-.4.8-.8-.4-.8-.8-.8-.8.4-.8.8ZM24.1,39.5c0-.4-.4-.8-.8-.8s-.8.4-.8.8.4.8.8.8.8-.4.8-.8ZM24.3,36.4c-.5,0-.8.4-.8.8s.4.8.8.8.8-.4.8-.8-.4-.8-.8-.8ZM26.1,35c0-.5-.4-.8-.8-.8s-.8.4-.8.8.4.8.8.8.8-.4.8-.8ZM26.3,31.9c-.5,0-.9.4-.9.9s.4.9.9.9.9-.4.9-.9-.4-.9-.9-.9ZM27.3,29.7c-.5,0-.9.4-.9.9s.4.9.9.9.9-.4.9-.9-.4-.9-.9-.9ZM29.2,28.4c0-.5-.4-.9-.9-.9s-.9.4-.9.9.4.9.9.9.9-.4.9-.9ZM29.2,25.2c-.5,0-.9.4-.9.9s.4.9.9.9.9-.4.9-.9-.4-.9-.9-.9ZM31.3,24c0-.5-.4-1-1-1s-1,.4-1,1,.4,1,1,1,1-.4,1-1ZM33.6,23.8c0-.6-.5-1-1-1s-1,.5-1,1,.5,1,1,1,1-.5,1-1ZM51,61.2c0,.7-.5,1.2-1.2,1.2s-1.2-.5-1.2-1.2,0-.3,0-.5c-.2.1-.4.2-.7.2-.8,0-1.4-.6-1.4-1.4s0-.5.2-.6c0,0,0,0,0,0-.8,0-1.5-.7-1.5-1.5s.1-.5.3-.8c-.7-.1-1.3-.7-1.3-1.5s0-.5.2-.7c-.7-.2-1.2-.8-1.2-1.5s0-.5.2-.7c-.7-.2-1.1-.8-1.1-1.6s0-.5.1-.7c-.6-.3-1.1-.9-1.1-1.6s0-.4.1-.6c-.6-.3-1.1-.9-1.1-1.6s0-.4.1-.6c-.6-.3-1.1-.9-1.1-1.6s0-.4.1-.6c-.6-.3-1.1-.9-1.1-1.6s0-.4.1-.6c-.6-.3-1.1-.9-1.1-1.7s0-.4.1-.6c-.6-.3-1-.9-1-1.6s0-.5.2-.7c-.6-.3-1-.9-1-1.5s0-.6.2-.8c-.6-.2-1-.8-1-1.4s.1-.7.3-.9c-.6-.1-1.1-.7-1.1-1.3s.2-.8.5-1c-.7,0-1.2-.6-1.2-1.2s.6-1.2,1.2-1.2.8.3,1,.6c0-.2.2-.3.3-.5-.6,0-1-.4-1.2-.9-.1.5-.5.9-1.1.9s-1.1-.5-1.1-1.1.5-1.1,1.1-1.1.8.3,1,.7c0-.4.2-.7.5-.9,0,0,0,0-.1,0-.7,0-1.3-.6-1.3-1.3s.6-1.3,1.3-1.3.3,0,.4,0c-.1-.2-.2-.5-.2-.8,0-.4.2-.8.4-1.1-.1,0-.2,0-.3,0-.8,0-1.4-.6-1.4-1.4s.6-1.4,1.4-1.4.6.1.8.3c0,0,0,0,0,0,0-.9.7-1.5,1.5-1.5s.1,0,.2,0c0-.2-.2-.4-.2-.7,0-.9.7-1.6,1.6-1.6s0,0,.1,0c0-.2-.1-.4-.1-.6,0-.9.7-1.6,1.6-1.6s.2,0,.3,0c0-.1,0-.2,0-.3,0-.9.7-1.6,1.6-1.6s.2,0,.4,0c0,0,0,0,0-.1,0-.8.7-1.5,1.5-1.5s1.5.7,1.5,1.5-.7,1.5-1.5,1.5-.2,0-.3,0c0,0,0,.1,0,.2,0,.9-.7,1.6-1.6,1.6s-.2,0-.2,0c0,.1,0,.2,0,.3,0,.9-.7,1.6-1.6,1.6s0,0-.2,0c0,.2.1.4.1.6s0,.2,0,.4c.2-.6.8-1,1.5-1s.2,0,.3,0c0,0,0,0,0-.1,0-.9.7-1.6,1.6-1.6s.3,0,.4,0c0-.8.7-1.5,1.5-1.5s1.5.7,1.5,1.5-.7,1.5-1.5,1.5-.2,0-.4,0c0,0,0,0,0,0,0,.9-.7,1.6-1.6,1.6s-.2,0-.3,0c0,0,0,.1,0,.2,0,.9-.7,1.6-1.6,1.6s-.1,0-.2,0c0,.1,0,.2,0,.4,0,.6-.4,1.2-.9,1.4.2,0,.3-.1.5-.1s.1,0,.2,0c0,0,0-.1,0-.2,0-.9.7-1.6,1.6-1.6s.2,0,.4,0c0-.8.7-1.5,1.5-1.5s.4,0,.6.1c0-.7.7-1.3,1.4-1.3s1.4.6,1.4,1.4-.6,1.4-1.4,1.4-.3,0-.5,0c0,.8-.7,1.5-1.5,1.5s-.2,0-.3,0c0,0,0,0,0,0,0,.9-.7,1.6-1.6,1.6s-.1,0-.2,0c0,0,0,.1,0,.2,0,.6-.3,1.1-.8,1.4.1,0,.3,0,.4,0s.2,0,.3,0c0-.9.7-1.5,1.6-1.5s.4,0,.5.1c0-.7.7-1.3,1.5-1.3s.5,0,.7.2c.1-.7.7-1.2,1.4-1.2s1.4.6,1.4,1.4-.6,1.4-1.4,1.4-.4,0-.6-.1c0,.7-.7,1.3-1.5,1.3s-.3,0-.4,0c0,.8-.7,1.5-1.6,1.5s-.1,0-.2,0c0,0,0,0,0,0,0,.6-.4,1.2-.9,1.5.2,0,.3,0,.5,0s.3,0,.4,0c0-.8.7-1.4,1.5-1.4s.5,0,.7.2c.1-.7.7-1.2,1.4-1.2s.6.1.8.3c.1-.6.7-1.1,1.3-1.1s1.4.6,1.4,1.4-.6,1.4-1.4,1.4-.5-.1-.7-.2c-.1.7-.7,1.2-1.4,1.2s-.4,0-.6-.1c-.1.7-.7,1.3-1.5,1.3s-.2,0-.4,0c0,.9-.7,1.5-1.6,1.5s-.1,0-.2,0c0,.4-.2.8-.4,1.1.1,0,.3,0,.4,0,.1-.7.7-1.3,1.5-1.3s.4,0,.6.1c.1-.7.7-1.3,1.4-1.3s.6.1.8.3c.1-.6.7-1.1,1.4-1.1s.7.1.9.4c.1-.6.7-1.1,1.3-1.1s1.4.6,1.4,1.4-.6,1.4-1.4,1.4-.6-.1-.9-.3c-.1.7-.7,1.2-1.4,1.2s-.5,0-.7-.2c-.1.7-.7,1.2-1.4,1.2s-.4,0-.5-.1c0,.8-.7,1.4-1.5,1.4s-.2,0-.4,0c0,.4-.2.8-.5,1,.2,0,.4,0,.6.1.2-.7.7-1.2,1.4-1.2s.5,0,.7.2c.1-.7.7-1.2,1.4-1.2s.7.1.9.3c.2-.6.7-1.1,1.3-1.1s.8.2,1,.5c.1-.6.6-1,1.3-1s1.3.6,1.3,1.3-.6,1.3-1.3,1.3-.7-.2-1-.5c-.1.6-.7,1.1-1.3,1.1s-.6-.1-.8-.3c-.1.6-.7,1.1-1.4,1.1s-.5,0-.7-.2c-.1.7-.7,1.3-1.5,1.3s-.3,0-.5-.1c0,.4-.3.8-.6,1,0,0,.1,0,.2,0,.3,0,.5,0,.8.2.2-.6.7-1.1,1.4-1.1s.6.1.9.3c.1-.6.7-1.1,1.3-1.1s.8.2,1,.5c.2-.6.7-1,1.3-1s.9.3,1.1.7c.1-.6.6-1,1.2-1s1.3.6,1.3,1.3-.6,1.3-1.3,1.3-.9-.3-1.1-.6c-.1.6-.6,1.1-1.3,1.1s-.7-.2-1-.4c-.2.6-.7,1.1-1.3,1.1s-.6-.1-.8-.3c-.1.7-.7,1.2-1.4,1.2s-.5,0-.6-.2c-.1.7-.7,1.3-1.5,1.3s-.1,0-.2,0c0,.2,0,.3.1.5.3-.4.7-.7,1.2-.7s.6.1.9.3c.2-.6.7-1.1,1.3-1.1s.8.2,1,.4c.2-.6.7-1,1.3-1s.9.3,1.1.7c.1-.6.6-1,1.3-1s1.1.4,1.2.9c0-.6.6-1.1,1.2-1.1s1.3.6,1.3,1.3-.6,1.3-1.3,1.3-1-.4-1.2-.9c0,.7-.6,1.2-1.3,1.2s-.9-.3-1.1-.6c-.1.6-.7,1.1-1.3,1.1s-.7-.2-1-.4c-.1.6-.7,1.1-1.3,1.1s-.6-.1-.8-.3c-.1.7-.7,1.2-1.4,1.2s-.2,0-.3,0c0,.2.1.3.1.5,0,.5-.3.9-.6,1.2,0,0,.1,0,.2,0,.2,0,.4,0,.5.1,0-.1,0-.3,0-.4,0-.8.6-1.4,1.4-1.4s.8.2,1,.5c.1-.6.6-1,1.3-1s.9.3,1.1.6c.1-.6.6-1.1,1.3-1.1s1.1.4,1.2,1c0-.6.6-1.2,1.2-1.2s1.3.6,1.3,1.3-.6,1.3-1.3,1.3-1.1-.4-1.2-.9c0,.7-.6,1.2-1.3,1.2s-.8-.3-1.1-.6c-.1.6-.6,1.1-1.3,1.1s-.7-.2-1-.4c-.1.6-.7,1.1-1.3,1.1s-.4,0-.5-.1c0,.1,0,.3,0,.4,0,.8-.6,1.4-1.4,1.4s-.7-.1-.9-.4c0,.2-.2.3-.3.4.4,0,.8.3,1,.6.2-.5.7-.9,1.2-.9s.5,0,.7.2c0-.1,0-.3,0-.4,0-.7.6-1.3,1.3-1.3s.9.3,1.1.7c0-.6.6-1.1,1.2-1.1s1.1.4,1.2,1c0-.7.6-1.2,1.2-1.2s1.2.6,1.2,1.2-.6,1.2-1.2,1.2-1.1-.4-1.2-1c0,.7-.6,1.2-1.3,1.2s-.9-.3-1.1-.7c0,.6-.6,1.1-1.3,1.1s-.5,0-.7-.2c0,.1,0,.3,0,.4,0,.7-.6,1.3-1.3,1.3s-.8-.2-1.1-.6c0,.2-.2.4-.4.6.6,0,1.1.4,1.3,1,.1-.6.6-1,1.2-1s.6.1.9.3c0-.1,0-.2,0-.4,0-.7.6-1.2,1.2-1.2s1.2.6,1.2,1.2-.6,1.2-1.2,1.2-.6-.1-.8-.3c0,.1,0,.3,0,.4,0,.7-.6,1.3-1.3,1.3s-1-.4-1.2-.9c0,.4-.3.8-.7,1,.1,0,.3,0,.4,0,.7,0,1.3.6,1.3,1.3s-.6,1.3-1.3,1.3-.5-.1-.7-.2c0,.2,0,.3-.2.5.3,0,.6.3.7.5.2-.5.6-.9,1.1-.9s1.2.5,1.2,1.2-.5,1.2-1.2,1.2-.6-.1-.9-.4c0,.2-.1.4-.2.6.5.1.8.4,1,.8,0-.5.5-1,1.1-1s1.1.5,1.1,1.1-.5,1.1-1.1,1.1-.8-.3-1-.6c0,.2,0,.4-.2.6,0,0,0,0,0,0,.8,0,1.4.6,1.4,1.4s0,.4-.1.6c.2,0,.4-.2.6-.2.7,0,1.2.5,1.2,1.2h0ZM38.7,18.9c.1,0,.2,0,.3,0s0,0,.1,0c0-.1,0-.2,0-.4-.1.2-.2.3-.4.4h0ZM44.6,37.8s0,0,0,0h0s0,0,0,0ZM46.6,51.1c-.1,0-.3,0-.4,0s-.4,0-.6-.1c0,.1,0,.3-.1.4.2,0,.4.2.5.3.1-.3.3-.5.6-.7h0ZM45.2,48.9s0,0,0,0c-.2,0-.3,0-.5,0,0,.1,0,.3,0,.4.1,0,.2.1.3.2,0-.2.2-.4.3-.5h0ZM45.7,43.4c0,0-.2,0-.2,0-.3,0-.5,0-.7-.2,0,.1-.1.2-.2.3.3,0,.5.2.7.4.1-.2.2-.4.4-.5h0ZM43.2,26s0,0-.1,0c0,0,0,0,0,0,0,.4-.2.8-.4,1.1,0,0,.2,0,.2,0,0-.6.4-1,.8-1.3-.2,0-.3.1-.5.1h0ZM42,23c0,0,0,0-.1,0,0,0,0,.1,0,.2s0,.2,0,.3c.1-.2.3-.4.6-.6-.1,0-.3,0-.4,0ZM41.3,19.9c-.2,0-.3.1-.5.1s-.1,0-.2,0c0,.1,0,.3,0,.4s0,0,0,0c.2-.2.3-.4.6-.5,0,0,0,0,0,0ZM39.5,17c0,0-.1,0-.2,0,0,.2.1.4.1.6.3-.5.8-.8,1.3-.8s.1,0,.2,0c0-.1,0-.2,0-.4s0-.2,0-.4c-.2.6-.8,1-1.5,1ZM52.1,61.4c-.6,0-1.1.5-1.1,1.1s.5,1.1,1.1,1.1,1.1-.5,1.1-1.1-.5-1.1-1.1-1.1Z"/>
    </g>
  </g>
</svg>
