<?xml version="1.0" encoding="UTF-8"?>
<svg id="Layer_1" xmlns="http://www.w3.org/2000/svg" version="1.1" viewBox="0 0 64 64" fill="#E6E6E6">
  <path d="M0,11.7c0,0,0,0,.1,0,.2,0,.6.2.8.2,6.4,1.4,8.5-2.2,12.8-5.7C20.4.9,32.5,1.8,31.4,12.5c-.5,4.6-4.6,8.7-8.1,11.4-2.6,2-8.3,5.2-9.5,8.2-.9,2.3-.3,5,2.2,5.8,3,1,6-2,7.8-4,6.2-6.9,13.4-21.1,24.8-17.8,6.3,1.9,9.7,9.3,10.1,15.5h5.3v7.4h-5.3c-.5,6.7-2.3,14.2-7.6,18.8-4.7,4.2-12.1,4.9-16.5-.2-4.4-5.1-2.1-11.1,1.3-15.9,3.9-5.4,9.6-9.1,16.2-10.2.2-3.3-1.9-6.5-5.1-7.3-8.1-1.9-14.2,8.7-18.4,14.1-4.4,5.6-9.6,11.5-17.4,8-4.4-1.9-6.5-6.7-6.2-11.3.3-4.6,4.7-8.8,8.1-11.5s10.5-6.4,11.3-10.3c.4-2-.8-4-3-3.7-3,.5-5.1,3.8-7.2,5.7C10.3,18.6,4.9,21,0,18.5v-6.8ZM51.9,38.9c-4.3.9-8.2,3.6-10.5,7.4-1.2,1.9-2.7,4.9-.5,6.7s5.7-.5,7.3-2.6c2.4-3.2,3.4-7.5,3.8-11.5Z"/>
</svg>
