<?xml version="1.0" encoding="UTF-8"?>
<svg id="Layer_1" xmlns="http://www.w3.org/2000/svg" version="1.1" viewBox="0 0 64 64" fill="#E6E6E6">
  <g id="waves">
    <path d="M63.2,58.7c-1.9,0-3.2-1.1-4.4-2.1-1.1-.9-2.1-1.7-3.4-1.7s-2.3.8-3.4,1.7c-1.2,1-2.5,2.1-4.4,2.1s-3.2-1.1-4.4-2.1c-1.1-.9-2.1-1.7-3.4-1.7s-2.3.8-3.4,1.7c-1.2,1-2.5,2.1-4.4,2.1s-3.2-1.1-4.4-2.1c-1.1-.9-2.1-1.7-3.4-1.7s-2.3.8-3.4,1.7c-1.2,1-2.5,2.1-4.4,2.1s0,0,0,0c-3-.4-4.7-2-6-3.2-.6-.6-1.2-1.1-1.6-1.2-1.5.3-3,1.4-4.3,2.5-1.3,1-2.5,1.9-3.6,1.9s-.8-.4-.8-.8.4-.8.8-.8,1.6-.8,2.6-1.6c1.5-1.2,3.2-2.5,5.1-2.8,0,0,0,0,.1,0,1.1,0,1.9.8,2.8,1.6,1.2,1.1,2.6,2.5,5,2.8,1.3,0,2.2-.8,3.3-1.7,1.2-1,2.5-2.1,4.4-2.1s3.2,1.1,4.4,2.1c1.1.9,2.1,1.7,3.4,1.7s2.3-.8,3.4-1.7c1.2-1,2.5-2.1,4.4-2.1s3.2,1.1,4.4,2.1c1.1.9,2.1,1.7,3.4,1.7s2.3-.8,3.4-1.7c1.2-1,2.5-2.1,4.4-2.1s3.2,1.1,4.4,2.1c1.1.9,2.1,1.7,3.4,1.7s.8.4.8.8-.4.8-.8.8Z"/>
  </g>
  <g id="hull">
    <path d="M43.8,56.9c-.3,0-.6-.2-.7-.5-.2-.4,0-.9.4-1.1,5.4-2.5,9.7-5.1,13.2-7.8l-50.4,3.2,1.5,2.9c.2.4,0,.9-.3,1.1-.4.2-.9,0-1.1-.3l-2.1-4c-.1-.2-.1-.5,0-.8.1-.2.4-.4.7-.4l54.1-3.5c.4,0,.7.2.8.5.1.3,0,.7-.2.9-3.8,3.5-8.9,6.7-15.5,9.7-.1,0-.2,0-.3,0Z"/>
  </g>
  <g id="front_sail">
    <path d="M53,44.5c-.1,0-.2,0-.3,0-.2,0-.5-.2-.7-.3-2-.8-3.6-1.5-6.4-.7-.4.1-.9-.1-1-.6-1.7-6.3-4.1-11.9-6.9-16.7-3.2-5.4-7.1-9.7-11.7-12.8-.3-.2-.5-.7-.3-1s.6-.5,1-.4c4.7,1.4,10.3,5.6,15.4,11.3,5.4,6.1,9.5,13.3,11.6,20.2,0,.3,0,.6-.2.8-.2.1-.4.2-.6.2ZM47.9,41.4c1.5,0,2.6.4,3.8.8-3.7-10.8-11.8-20.6-19.2-25.6,2.4,2.5,4.7,5.4,6.6,8.7,2.8,4.7,5.1,10.2,6.9,16.4.7-.1,1.3-.2,1.9-.2Z"/>
  </g>
  <g id="rear_sail">
    <path d="M9.2,46.6c-.2,0-.5,0-.6-.3-.3-.3-.3-.7,0-1.1,4.8-6.1,6.9-13.1,6.2-20.8-.6-7.4-3.7-13.8-6.1-17.9-.2-.3-.1-.7,0-1,.2-.3.6-.4.9-.2,6.6,2.8,13.6,7.9,19.1,14,6.7,7.4,11,15.8,12.4,24.4,0,.3,0,.6-.3.8s-.5.2-.8.1c-11-4.4-21.3-3.8-30.4,1.8-.1,0-.3.1-.4.1ZM11.4,7.9c2.2,4.2,4.5,9.9,5.1,16.4.6,6.9-.9,13.3-4.5,19,3.3-1.6,6.8-2.6,10.4-3,5.4-.6,11.1.1,17,2.3-1.5-7.8-5.6-15.4-11.7-22.2-4.7-5.2-10.5-9.6-16.2-12.5Z"/>
  </g>
</svg>
