<?xml version="1.0" encoding="UTF-8"?>
<svg id="Layer_2" xmlns="http://www.w3.org/2000/svg" version="1.1" viewBox="0 0 548.2 124.8">
  <!-- Generator: Adobe Illustrator 29.8.4, SVG Export Plug-In . SVG Version: 2.1.1 Build 6)  -->
  <defs>
    <style>
      .st0 {
        fill: #eaeaea;
      }

      .st1 {
        fill: #212121;
      }
    </style>
  </defs>
  <g id="Layer_1-2">
    <g>
      <path class="st0" d="M62.4,0h485.8v124.8H62.4C28,124.8,0,96.8,0,62.4h0C0,28,28,0,62.4,0Z"/>
      <g>
        <path class="st1" d="M47.7,67.6h1.7c0,7.5,3.2,20.5,31.4,20.5s32.9-9.7,32.9-17.7-2.7-8.4-7.8-9.9c-5.7-1.7-17.2-2.1-25.3-2.4-7.3-.3-20.3-.9-25.7-3-4.8-2-7.6-5.7-7.6-11.1,0-10.3,10.7-19,32.9-19s32.1,10.4,32.1,21.6h-1.7c0-10.3-5.1-19.9-30.4-19.9s-31.2,8-31.2,17.3,2.5,7.9,6.6,9.6c5,2.1,17.8,2.6,25,2.9,8.1.3,20,.7,25.9,2.4,5.7,1.6,8.9,6.2,8.9,11.6,0,8.8-5.4,19.4-34.7,19.4s-33.1-14.1-33.1-22.2h0Z"/>
        <path class="st1" d="M127.8,75.7c0-6.5,5.1-11.9,18.8-11.9h35.8v-1.9c0-11.1-8-19.5-26.3-19.5s-24.9,5.5-24.9,14.4,0,.9,0,1.5h-1.7c-.1-.8-.1-1.3-.1-1.5,0-10,9.4-16.1,26.7-16.1s28,9.1,28,21.2v26.8h-1.7v-15.8h-.1c-3.1,9.1-14.2,16.7-31.1,16.7s-23.3-6.8-23.3-13.8h0ZM182.4,65.7v-.2h-35.7c-12.8,0-17.1,4.6-17.1,10.2s5.1,12.1,21.6,12.1,31.2-11.9,31.2-22.1h0Z"/>
        <path class="st1" d="M197.9,41.6h1.7v17.2h.2c3.3-10.4,13.6-18.2,26.3-18.2s23.2,9.7,23.2,21.4-.2,6-.4,7.5h-1.7c.2-1.5.4-4.6.4-7.5,0-10.8-5.1-19.7-21.5-19.7s-26.5,10.9-26.5,25.7v20.6h-1.7v-47h0Z"/>
        <path class="st1" d="M263.1,41.6h1.7v47h-1.7s0-47,0-47Z"/>
        <path class="st1" d="M281.2,108.1v-1.8c1.2.6,4,1.4,7,1.4,8.2,0,11.4-5.1,19.7-19h-1.1l-30.9-47h2.2l30.3,46.2h.1l27.4-46.2h2.1l-28.3,47.6c-8.6,14.5-12.2,20.2-21.4,20.2s-5.7-.8-7-1.3h0Z"/>
        <path class="st1" d="M348.8,41.6h1.7v47h-1.7s0-47,0-47Z"/>
        <path class="st1" d="M366.7,22h1.7v66.6h-1.7V22Z"/>
        <path class="st1" d="M382.2,64.6c0-13.4,10.8-23.9,30.4-23.9s26.8,6.1,30.1,14.8h0V22h1.7v66.6h-1.7v-16.8h0c-3.5,8.5-13.6,17.8-30.7,17.8s-29.8-9.8-29.8-25h0ZM442.8,65.7v-2.2c0-11.8-10.7-21.1-30.2-21.1s-28.7,9.7-28.7,22.2,11,23.3,28.1,23.3,30.3-13.6,30.8-22.2Z"/>
        <path class="st1" d="M460.7,41.6h1.7v47h-1.7s0-47,0-47Z"/>
        <path class="st1" d="M476.2,86.9l45.6-43.4h0c0,0-44.9,0-44.9,0v-1.7h47.3v1.8l-45.6,43.4h0c0,0,45.6,0,45.6,0v1.7h-48.1v-1.8h0Z"/>
      </g>
    </g>
  </g>
</svg>