<?xml version="1.0" encoding="UTF-8"?>
<svg id="Layer_2" data-name="Layer 2" xmlns="http://www.w3.org/2000/svg" viewBox="0 0 345.94 124.75">
  <defs>
    <style>
      .cls-1 {
        fill: #d5c923;
      }

      .cls-2 {
        fill: #191919;
      }
    </style>
  </defs>
  <g id="Layer_1-2" data-name="Layer 1">
    <g>
      <path class="cls-1" d="M62.37,0h283.57v124.75H62.37C27.95,124.75,0,96.8,0,62.37H0C0,27.95,27.95,0,62.37,0Z"/>
      <g>
        <path class="cls-2" d="M62.86,69.72c26.28-8.47,29.14-14.66,29.14-24.38,0-8-6.76-18.57-26.09-18.57s-28.28,10.19-28.28,21.52c0,3.52.57,6.76,1.05,8.38h-1.81c-.38-1.43-.95-4.28-.95-8.38,0-12.28,9.62-23.23,29.99-23.23s27.8,11.52,27.8,20.28c0,12-5.24,17.81-30.37,25.99-22.57,7.33-26.18,10-26.37,15.62h58.27v1.71h-59.99c0-8.38,2.86-10.95,27.61-18.95Z"/>
        <path class="cls-2" d="M109.51,57.05c0-19.14,10.28-31.99,32.28-31.99s32.47,12.85,32.47,31.99-9.14,32.56-32.47,32.56-32.28-14.38-32.28-32.56ZM172.54,57.05c0-18.19-9.71-30.28-30.75-30.28s-30.56,12.09-30.56,30.28c0,17.23,8.57,30.85,30.56,30.85s30.75-13.62,30.75-30.85Z"/>
        <path class="cls-2" d="M215.2,69.72c26.28-8.47,29.14-14.66,29.14-24.38,0-8-6.76-18.57-26.09-18.57s-28.28,10.19-28.28,21.52c0,3.52.57,6.76,1.05,8.38h-1.81c-.38-1.43-.95-4.28-.95-8.38,0-12.28,9.62-23.23,29.99-23.23s27.8,11.52,27.8,20.28c0,12-5.24,17.81-30.37,25.99-22.57,7.33-26.18,10-26.37,15.62h58.27v1.71h-59.99c0-8.38,2.86-10.95,27.61-18.95Z"/>
        <path class="cls-2" d="M261.85,58.01c0-20.38,10.85-32.94,33.42-32.94,20.28,0,28.66,9.05,28.66,19.14,0,.95-.09,1.81-.19,2.38h-1.71c.09-.67.19-1.52.19-2.38,0-9.14-7.81-17.42-26.95-17.42-21.42,0-31.71,12-31.71,31.23,0,3.33.19,6.95.86,10.09h.09c2.19-9.24,12.47-15.52,31.71-15.52,24.76,0,30.37,8.09,30.37,17.42,0,10.38-6.67,19.61-31.33,19.61-28.56,0-33.42-15.52-33.42-31.61ZM324.88,70c0-8.38-5.24-15.71-28.66-15.71s-30.37,9.43-30.37,16.85c0,.48,1.71,16.76,29.42,16.76,23.33,0,29.61-8.47,29.61-17.9Z"/>
      </g>
    </g>
  </g>
</svg>