<?xml version="1.0" encoding="UTF-8"?>
<svg id="Layer_2" data-name="Layer 2" xmlns="http://www.w3.org/2000/svg" viewBox="0 0 548.15 124.75">
  <defs>
    <style>
      .cls-1 {
        fill: #807b40;
      }

      .cls-2 {
        fill: #191919;
      }
    </style>
  </defs>
  <g id="Layer_1-2" data-name="Layer 1">
    <g>
      <path class="cls-2" d="M62.37,0h485.77v124.75H62.37C27.95,124.75,0,96.8,0,62.37H0C0,27.95,27.95,0,62.37,0Z"/>
      <g>
        <path class="cls-1" d="M47.66,67.62h1.71c0,7.52,3.24,20.47,31.42,20.47s32.94-9.71,32.94-17.71c0-4.76-2.67-8.38-7.81-9.9-5.71-1.71-17.23-2.09-25.33-2.38-7.33-.29-20.28-.86-25.71-3.05-4.76-2-7.62-5.71-7.62-11.14,0-10.28,10.66-19.04,32.94-19.04,26.57,0,32.09,10.38,32.09,21.61h-1.71c0-10.28-5.14-19.9-30.37-19.9-21.14,0-31.23,8-31.23,17.33,0,4.67,2.48,7.9,6.57,9.62,5.05,2.09,17.8,2.57,25.04,2.86,8.09.29,20,.67,25.9,2.38,5.71,1.62,8.95,6.19,8.95,11.62,0,8.76-5.43,19.42-34.66,19.42s-33.13-14.09-33.13-22.19Z"/>
        <path class="cls-1" d="M127.83,75.72c0-6.47,5.05-11.9,18.76-11.9h35.8v-1.9c0-11.14-8-19.52-26.28-19.52-16.09,0-24.95,5.52-24.95,14.38,0,.19,0,.86.09,1.52h-1.71c-.1-.76-.1-1.33-.1-1.52,0-10,9.43-16.09,26.66-16.09,19.42,0,27.99,9.14,27.99,21.23v26.76h-1.71v-15.81h-.1c-3.05,9.05-14.19,16.66-31.13,16.66-17.8,0-23.33-6.76-23.33-13.81ZM182.39,65.72v-.19h-35.71c-12.76,0-17.14,4.57-17.14,10.19,0,6.09,5.14,12.09,21.61,12.09,21.14,0,31.23-11.9,31.23-22.09Z"/>
        <path class="cls-1" d="M197.9,41.63h1.71v17.23h.19c3.33-10.38,13.62-18.19,26.28-18.19,17.71,0,23.23,9.71,23.23,21.42,0,2.95-.19,6-.38,7.52h-1.71c.19-1.52.38-4.57.38-7.52,0-10.76-5.14-19.71-21.52-19.71-14.66,0-26.47,10.85-26.47,25.71v20.57h-1.71v-47.04Z"/>
        <path class="cls-1" d="M263.12,41.63h1.71v47.04h-1.71v-47.04Z"/>
        <path class="cls-1" d="M281.21,108.09v-1.81c1.24.57,4,1.43,6.95,1.43,8.19,0,11.43-5.05,19.71-19.04h-1.14l-30.94-47.04h2.19l30.28,46.18h.1l27.42-46.18h2.09l-28.28,47.61c-8.57,14.47-12.19,20.19-21.42,20.19-2.95,0-5.71-.76-6.95-1.33Z"/>
        <path class="cls-1" d="M348.81,41.63h1.71v47.04h-1.71v-47.04Z"/>
        <path class="cls-1" d="M366.71,22.02h1.71v66.65h-1.71V22.02Z"/>
        <path class="cls-1" d="M382.23,64.58c0-13.43,10.76-23.9,30.37-23.9,15.8,0,26.75,6.09,30.09,14.76h.09V22.02h1.71v66.65h-1.71v-16.85h-.09c-3.52,8.47-13.62,17.81-30.66,17.81-18.09,0-29.8-9.81-29.8-25.04ZM442.78,65.72v-2.19c0-11.81-10.66-21.14-30.18-21.14-18.47,0-28.66,9.71-28.66,22.19,0,14.09,10.95,23.33,28.09,23.33,20.28,0,30.28-13.62,30.75-22.19Z"/>
        <path class="cls-1" d="M460.68,41.63h1.71v47.04h-1.71v-47.04Z"/>
        <path class="cls-1" d="M476.2,86.86l45.61-43.42v-.1h-44.85v-1.71h47.32v1.81l-45.61,43.42v.1h45.61v1.71h-48.08v-1.81Z"/>
      </g>
    </g>
  </g>
</svg>