<?xml version="1.0" encoding="UTF-8"?>
<svg id="Layer_2" data-name="Layer 2" xmlns="http://www.w3.org/2000/svg" viewBox="0 0 609.56 124.75">
  <defs>
    <style>
      .cls-1 {
        fill: #e6e6e6;
      }

      .cls-2 {
        fill: #191919;
      }
    </style>
  </defs>
  <g id="Layer_1-2" data-name="Layer 1">
    <g>
      <path class="cls-1" d="M124.75,0h422.44C581.61,0,609.56,27.95,609.56,62.37h0c0,34.43-27.95,62.37-62.37,62.37H0C0,55.9,55.9,0,124.75,0Z"/>
      <g>
        <path class="cls-2" d="M87.5,67.42h30.09c0,2.86,1.43,5.05,6.19,5.05s5.24-2,5.24-3.14c0-1.05-.67-2.09-2.67-2.38-2.1-.29-7.05-.76-12.57-1.33-5.24-.57-14-1.81-18.76-4.19-5.24-2.67-7.9-7.24-7.9-13.9,0-12.85,11.9-22.85,39.13-22.85,31.52,0,36.94,10.19,36.94,21.61h-28.18c0-2.57-2.19-4.48-6.47-4.48-4.57,0-5.62,1.71-5.62,2.86,0,.67.29,1.52,1.62,2,1.71.57,6.38.86,13.24,1.52,8.76.86,14.19,1.71,18.57,3.52,6,2.48,9.43,7.24,9.43,14.47,0,11.04-5.05,23.42-39.99,23.42s-38.28-13.62-38.28-22.18Z"/>
        <path class="cls-2" d="M174.43,71.13v-9.14h-6.28v-20.57h4.95c3.81,0,5.81-1.43,6.47-5.71l.76-4.95h26.09v10.66h15.33v20.57h-15.33v5.05c0,2.38,1.33,2.76,7.43,2.76,3.43,0,5.9-.19,6.95-.29v18.95c-1.9.38-8,.95-17.52.95-21.33,0-28.85-7.71-28.85-18.28Z"/>
        <path class="cls-2" d="M224.6,70.85v-29.42h31.99v20c0,2.09.67,3.62,2.86,3.62,2.76,0,4-2,4-5.52v-18.09h31.99v47.04h-31.99c.19-3.24.38-8.38.38-12.95h-.19c-2.19,6.67-8.28,13.9-19.62,13.9-13.33,0-19.42-7.14-19.42-18.57Z"/>
        <path class="cls-2" d="M298.3,64.66c0-14.95,9.43-24.18,23.8-24.18,8.95,0,13.62,2.67,15.81,5.43h.19v-24.09h31.99v66.65h-31.99c.19-3.14.38-6.47.48-9.33h-.29c-2.29,4.57-6.57,10.28-16.85,10.28-15.04,0-23.14-9.24-23.14-24.76ZM338.09,65.04v-2.29c-.29-1.62-1.43-3.62-3.81-3.62-2.86,0-4,1.9-4,5.81,0,3.43.95,5.81,4,5.81,1.81,0,3.81-1.33,3.81-5.71Z"/>
        <path class="cls-2" d="M373.89,21.81h31.99v16h-31.99v-16ZM373.89,41.43h31.99v47.04h-31.99v-47.04Z"/>
        <path class="cls-2" d="M408.74,65.04c0-12.66,9.71-24.57,35.42-24.57s35.42,11.9,35.42,24.57-9.52,24.38-35.42,24.38-35.42-11.71-35.42-24.38ZM447.59,64.94c0-3.33-.67-5.81-3.43-5.81s-3.43,2.48-3.43,5.81c0,3.14.67,5.81,3.43,5.81s3.43-2.48,3.43-5.81Z"/>
        <path class="cls-2" d="M484.34,62.47c0-20.95,17.04-37.99,37.99-37.99s37.99,17.04,37.99,37.99-17.04,37.99-37.99,37.99-37.99-17.04-37.99-37.99ZM555.37,62.47c0-18.28-14.76-33.04-33.04-33.04s-33.04,14.76-33.04,33.04,14.76,33.04,33.04,33.04,33.04-14.76,33.04-33.04ZM506.24,42.38h17.42c10.28,0,14.95,4.57,14.95,10.85,0,3.62-1.24,7.05-5.33,8.86v.19c4.19,1.52,5.33,4.67,5.33,8.09v11.33h-7.24v-11.33c0-3.05-1.52-4.76-5.71-4.76h-12.19v16.09h-7.24v-39.32ZM523.66,59.71c5.52,0,7.71-1.81,7.71-5.52,0-2.95-1.71-5.33-8.28-5.33h-9.62v10.85h10.19Z"/>
      </g>
    </g>
  </g>
</svg>