<?xml version="1.0" encoding="UTF-8"?>
<svg id="Layer_2" data-name="Layer 2" xmlns="http://www.w3.org/2000/svg" viewBox="0 0 124.75 124.75">
  <defs>
    <style>
      .cls-1 {
        fill: #807b40;
      }

      .cls-2 {
        fill: #191919;
      }
    </style>
  </defs>
  <g id="Layer_1-2" data-name="Layer 1">
    <g>
      <rect class="cls-2" x="0" y="0" width="124.75" height="124.75" rx="62.37" ry="62.37"/>
      <g>
        <path class="cls-1" d="M62.37,109.16c-25.94,0-47.02-21.22-46.79-47.21.22-25.2,20.61-45.85,45.81-46.36,23.48-.48,43.18,16.43,47.07,38.7h5.46c-3.88-24.88-25.41-44-51.34-44.1-28.74-.11-52.31,23.31-52.38,52.04-.07,28.83,23.36,52.31,52.18,52.31,26.02,0,47.66-19.15,51.55-44.1h-5.46c-3.84,21.96-23.04,38.71-46.09,38.71Z"/>
        <path class="cls-1" d="M114.49,59.68h-38.87c-3.81,0-6.2-4.13-4.29-7.43l14.03-24.3c-1.49-1-3.04-1.9-4.66-2.7l-14.03,24.3c-1.91,3.3-6.68,3.3-8.58,0l-14.03-24.3c-1.62.8-3.17,1.7-4.66,2.7l14.03,24.3c1.91,3.3-.48,7.43-4.29,7.43h-28.07c-.06.89-.09,1.79-.09,2.69s.03,1.8.09,2.69h28.07c3.81,0,6.2,4.13,4.29,7.43l-14.03,24.29c1.49,1,3.04,1.9,4.66,2.7l14.03-24.3c1.91-3.3,6.68-3.3,8.58,0l14.03,24.3c1.62-.8,3.17-1.7,4.66-2.7l-14.03-24.29c-1.91-3.3.48-7.43,4.29-7.43h38.87c.04-.89.07-1.79.07-2.7s-.02-1.8-.07-2.69Z"/>
      </g>
    </g>
  </g>
</svg>