<?xml version="1.0" encoding="UTF-8"?>
<svg id="Layer_2" xmlns="http://www.w3.org/2000/svg" version="1.1" viewBox="0 0 124.8 124.8">
  <!-- Generator: Adobe Illustrator 29.8.4, SVG Export Plug-In . SVG Version: 2.1.1 Build 6)  -->
  <defs>
    <style>
      .st0 {
        fill: #fff02f;
      }

      .st1 {
        fill: #212121;
      }
    </style>
  </defs>
  <g id="Layer_1-2">
    <g>
      <rect class="st0" width="124.8" height="124.8" rx="62.4" ry="62.4"/>
      <g>
        <path class="st1" d="M62.4,109.2c-25.9,0-47-21.2-46.8-47.2.2-25.2,20.6-45.8,45.8-46.4,23.5-.5,43.2,16.4,47.1,38.7h5.5c-3.9-24.9-25.4-44-51.3-44.1-28.7-.1-52.3,23.3-52.4,52,0,28.8,23.4,52.3,52.2,52.3s47.7-19.2,51.5-44.1h-5.5c-3.8,22-23,38.7-46.1,38.7h0Z"/>
        <path class="st1" d="M114.5,59.7h-38.9c-3.8,0-6.2-4.1-4.3-7.4l14-24.3c-1.5-1-3-1.9-4.7-2.7l-14,24.3c-1.9,3.3-6.7,3.3-8.6,0l-14-24.3c-1.6.8-3.2,1.7-4.7,2.7l14,24.3c1.9,3.3-.5,7.4-4.3,7.4h-28.1c0,.9,0,1.8,0,2.7s0,1.8,0,2.7h28.1c3.8,0,6.2,4.1,4.3,7.4l-14,24.3c1.5,1,3,1.9,4.7,2.7l14-24.3c1.9-3.3,6.7-3.3,8.6,0l14,24.3c1.6-.8,3.2-1.7,4.7-2.7l-14-24.3c-1.9-3.3.5-7.4,4.3-7.4h38.9c0-.9,0-1.8,0-2.7s0-1.8,0-2.7h0Z"/>
      </g>
    </g>
  </g>
</svg>