<?xml version="1.0" encoding="UTF-8"?>
<svg id="Layer_2" data-name="Layer 2" xmlns="http://www.w3.org/2000/svg" viewBox="0 0 124.75 124.75">
  <defs>
    <style>
      .cls-1 {
        fill: #e6e6e6;
      }

      .cls-2 {
        fill: #aaa239;
      }
    </style>
  </defs>
  <g id="Layer_1-2" data-name="Layer 1">
    <g>
      <rect class="cls-2" x="0" y="0" width="124.75" height="124.75" rx="62.37" ry="62.37"/>
      <path class="cls-1" d="M25.96,61.93c0-18.09,16.38-32.66,36.47-32.66s36.37,14.57,36.37,32.66v2.09h-58.94c-.29,0-.48.1-.48.38v14.57c0,.76.29,1.52.76,2.09,5.62,6,13.62,9.52,22.38,9.52s15.9-3.24,21.52-8.66h7.24c-6.57,7.81-17.14,12.66-28.85,12.66-20.09,0-36.47-14.47-36.47-32.66ZM85.09,60.03c.29,0,.48-.19.48-.48v-14.95c0-.86-.38-1.62-.95-2.19-5.71-5.71-13.52-9.14-22.09-9.14s-16.57,3.52-22.28,9.43c-.48.57-.86,1.43-.86,2.29v14.57c0,.29.19.48.48.48h45.23Z"/>
    </g>
  </g>
</svg>