<?xml version="1.0" encoding="UTF-8"?>
<svg id="Layer_2" data-name="Layer 2" xmlns="http://www.w3.org/2000/svg" viewBox="0 0 375.16 124.75">
  <defs>
    <style>
      .cls-1 {
        fill: #555339;
      }

      .cls-2 {
        fill: #d5c923;
      }
    </style>
  </defs>
  <g id="Layer_1-2" data-name="Layer 1">
    <g>
      <path class="cls-2" d="M62.37,0h312.79v124.75H62.37C27.95,124.75,0,96.8,0,62.37H0C0,27.95,27.95,0,62.37,0Z"/>
      <g>
        <path class="cls-1" d="M48.5,58.43c0-18.57,13.23-32.56,39.32-32.56,27.61,0,36.56,15.04,36.56,25.52,0,.19,0,.95-.09,1.52h-16.28v-.38c0-5.81-5.81-13.14-19.33-13.14s-20.95,8.28-20.95,19.04c0,10,5.9,18.85,21.04,18.85,12.95,0,19.52-5.9,19.52-12.85v-.57h16.28c.1.48.1,1.14.1,1.33,0,12.19-9.9,25.61-36.66,25.61-29.71,0-39.51-16.19-39.51-32.37Z"/>
        <path class="cls-1" d="M193.7,69.66h-45.23c.86,5.9,4.67,10.28,16,10.28,10.38,0,13.52-2.57,14.19-5.81h15.04c-.48,9.05-8.38,16.47-29.23,16.47-25.52,0-33.13-12.09-33.13-23.99,0-15.33,11.62-24.95,32.18-24.95s30.18,8.76,30.18,24.09v3.9ZM178.66,60.52c0-4.28-3.24-8.19-14.19-8.19-9.9,0-14.19,3.05-15.62,8.57h29.8v-.38Z"/>
        <path class="cls-1" d="M195.13,42.62h20l17.62,32.85h.09l17.61-32.85h17.81l-26.47,47.04h-19.8l-26.85-47.04Z"/>
        <path class="cls-1" d="M269.68,66.23c0-12.66,9.14-24.57,33.04-24.57s33.04,11.9,33.04,24.57-8.95,24.38-33.04,24.38-33.04-11.62-33.04-24.38ZM318.81,66.23c0-6.67-4.29-12.38-16.09-12.38s-16.09,5.71-16.09,12.38,4.19,12.19,16.09,12.19,16.09-5.62,16.09-12.19Z"/>
      </g>
    </g>
  </g>
</svg>