<?xml version="1.0" encoding="UTF-8"?>
<svg id="Layer_2" data-name="Layer 2" xmlns="http://www.w3.org/2000/svg" viewBox="0 0 254.62 124.75">
  <defs>
    <style>
      .cls-1 {
        fill: #ffef00;
      }

      .cls-2 {
        fill: #191919;
      }
    </style>
  </defs>
  <g id="Layer_1-2" data-name="Layer 1">
    <g>
      <rect class="cls-1" x="0" y="0" width="254.62" height="124.75" rx="62.37" ry="62.37"/>
      <g>
        <path class="cls-2" d="M46.57,81.42h21.14v-33.52h-14.38v-5.81l8.76-.19c5.81-.1,6.47-1.52,6.57-16.76h6.86v56.27h17.52v7.05h-46.46v-7.05Z"/>
        <path class="cls-2" d="M123.03,64.09c15.71-7.33,18.19-11.14,18.19-19.42,0-7.43-5.24-12.66-14-12.66-9.9,0-15.33,6.19-15.33,15.9,0,2.95.29,5.81.57,7.24h-7.24c-.29-1.43-.57-4.38-.57-7.62,0-13.81,8.28-22.57,22.76-22.57,13.33,0,21.61,8.09,21.61,19.71,0,9.52-3.52,16.09-21.8,24.66-13.42,6.28-14.95,8.19-14.95,12.09h37.9v7.05h-45.89c0-12.85,2.19-16.66,18.76-24.38Z"/>
        <path class="cls-2" d="M160.35,69.7c0-1.33.19-3.24.29-4.29h7.24c-.09,1.62-.09,2.57-.09,3.05,0,9.05,5.81,13.81,16.28,13.81s17.33-4.95,17.33-13.52c0-6.28-4.48-9.52-12.09-9.52h-9.81v-5.71h8.28c7.24,0,10.95-3.9,10.95-10,0-7.24-5.52-11.52-13.9-11.52-10.09,0-15.62,5.05-15.62,13.04,0,1.71.1,3.05.19,4h-7.24c-.19-.95-.38-3.05-.38-5.14,0-11.52,8.57-18.95,23.04-18.95,13.04,0,21.52,6.67,21.52,17.71,0,6.19-3.52,11.24-8.95,12.47v.19c7.24.95,11.81,6.38,11.81,13.9,0,12.28-9.62,20.09-25.14,20.09-14.47,0-23.71-7.43-23.71-19.61Z"/>
      </g>
    </g>
  </g>
</svg>