<?xml version="1.0" encoding="UTF-8"?>
<svg id="Layer_2" data-name="Layer 2" xmlns="http://www.w3.org/2000/svg" viewBox="0 0 1599.5 269.48">
  <defs>
    <style>
      .cls-1 {
        fill: #191919;
      }
    </style>
  </defs>
  <g id="Layer_1-2" data-name="Layer 1">
    <g>
      <g>
        <path class="cls-1" d="M134.74,255.57c-66.98,0-121.41-54.79-120.82-121.91.57-65.08,53.22-118.39,118.29-119.73,60.63-1.25,111.5,42.42,121.55,99.94h14.1C257.83,49.62,202.23.26,135.27,0,61.06-.29.19,60.19,0,134.39c-.19,74.46,60.32,135.09,134.74,135.09,67.2,0,123.07-49.44,133.12-113.87h-14.1c-9.91,56.71-59.51,99.96-119.02,99.96Z"/>
        <path class="cls-1" d="M269.33,127.79h-100.38c-9.85,0-16.01-10.66-11.08-19.2l36.22-62.74c-3.85-2.57-7.86-4.91-12.03-6.98l-36.23,62.76c-4.93,8.53-17.24,8.53-22.17,0l-36.23-62.76c-4.17,2.07-8.19,4.4-12.03,6.98l36.22,62.74c4.93,8.53-1.23,19.2-11.08,19.2H28.04c-.15,2.3-.22,4.62-.22,6.96s.08,4.65.22,6.96h72.48c9.85,0,16.01,10.66,11.08,19.2l-36.22,62.74c3.85,2.57,7.86,4.91,12.03,6.98l36.23-62.76c4.93-8.53,17.24-8.53,22.17,0l36.23,62.76c4.17-2.07,8.19-4.4,12.03-6.98l-36.22-62.74c-4.93-8.53,1.23-19.2,11.08-19.2h100.38c.11-2.3.17-4.63.17-6.96s-.06-4.65-.17-6.95Z"/>
      </g>
      <g>
        <path class="cls-1" d="M314.4,137.68c0-23.55,17.66-43.91,50.69-43.91,35.2,0,47.49,19.58,47.49,33.03v1.15h-11.26v-.51c0-9.6-9.47-23.17-35.71-23.17s-39.17,14.08-39.17,33.41c0,16.64,11.39,32.9,39.68,32.9,24.19,0,35.84-11.26,35.84-22.91v-.64h11.26v1.02c0,15.36-14.34,33.03-47.11,33.03-38.02,0-51.71-22.4-51.71-43.39Z"/>
        <path class="cls-1" d="M506.02,151h-68.87c.9,10.88,8.06,20.35,30.59,20.35,19.2,0,26.24-6.14,27.52-12.29h10.75c-1.02,10.24-12.03,21.76-38.27,21.76-32.64,0-41.99-17.02-41.99-32.39,0-20.1,15.49-33.41,41.35-33.41s38.91,12.16,38.91,31.11v4.86ZM495.26,142.42c0-10.62-8.7-17.92-28.03-17.92-17.92,0-27.52,6.53-29.7,18.3h57.73v-.38Z"/>
        <path class="cls-1" d="M510.49,116.31h13.44l34.05,53.51h.13l33.54-53.51h12.93l-40.58,63.24h-12.93l-40.58-63.24Z"/>
        <path class="cls-1" d="M615.96,89.94h11.26v32.51c0,4.35,0,6.78-.13,12.42h.26c5.25-13.44,16-19.84,36.87-19.84,27.01,0,36.99,13.06,36.99,28.67v35.84h-11.26v-32.9c0-13.31-6.66-21.63-28.54-21.63-17.54,0-34.18,8.83-34.18,26.5v28.03h-11.26v-89.6Z"/>
        <path class="cls-1" d="M794.65,151h-68.87c.9,10.88,8.06,20.35,30.59,20.35,19.2,0,26.24-6.14,27.52-12.29h10.75c-1.02,10.24-12.03,21.76-38.27,21.76-32.64,0-41.99-17.02-41.99-32.39,0-20.1,15.49-33.41,41.35-33.41s38.91,12.16,38.91,31.11v4.86ZM783.9,142.42c0-10.62-8.7-17.92-28.03-17.92-17.92,0-27.52,6.53-29.7,18.3h57.73v-.38Z"/>
        <path class="cls-1" d="M808.47,116.31h11.26l-.13,20.1h.26c4.1-12.16,13.44-21.38,32-21.38,20.86,0,29.82,11.52,29.82,30.72,0,4.35-.13,8.06-.25,9.73h-10.62c0-1.54.13-4.35.13-6.53,0-16-5.38-23.94-21.12-23.94-18.56,0-30.08,14.59-30.08,31.23v23.3h-11.26v-63.24Z"/>
        <path class="cls-1" d="M936.34,151.25h11.26c0,8.83,4.48,19.33,35.07,19.33s36.35-7.55,36.35-16.13c0-4.99-2.94-8.19-8.83-9.73-6.66-1.79-21.12-2.05-31.36-2.56-10.88-.51-25.6-1.41-32.77-4.61-6.27-2.82-10.24-8.96-10.24-16.64,0-14.72,14.72-27.14,46.21-27.14,37.63,0,44.93,13.95,44.93,29.06h-11.26c0-11.14-6.91-18.56-33.66-18.56-23.43,0-34.18,6.14-34.18,15.74,0,4.99,2.69,7.68,7.3,9.34,5.89,2.18,21.25,2.69,30.85,3.07,11.52.51,25.09,1.02,32.77,3.71,7.81,2.69,12.29,9.34,12.29,17.54,0,12.42-7.3,27.39-48.39,27.39s-46.34-18.82-46.34-29.83Z"/>
        <path class="cls-1" d="M1044.88,160.98c0-13.95,13.06-16.64,27.26-16.64h40.19v-1.66c0-11.78-8.58-18.18-28.42-18.18s-26.11,5.25-26.11,12.16c0,.38,0,.77.13,1.66h-10.75c-.13-1.15-.13-1.92-.13-2.18,0-12.54,12.03-21.12,36.87-21.12,26.5,0,39.68,11.65,39.68,28.8v35.71h-11.26c.38-4.35.64-11.39.77-16.26h-.13c-2.94,11.01-13.18,17.41-35.59,17.41s-32.51-9.09-32.51-19.71ZM1112.34,152.79v-.26h-38.79c-11.14,0-17.92.77-17.92,8.19,0,4.48,2.94,10.5,22.4,10.5,24.07,0,34.31-9.22,34.31-18.43Z"/>
        <path class="cls-1" d="M1138.07,116.31h11.26l-.13,20.1h.26c4.1-12.16,13.44-21.38,32-21.38,20.86,0,29.82,11.52,29.82,30.72,0,4.35-.13,8.06-.25,9.73h-10.62c0-1.54.13-4.35.13-6.53,0-16-5.38-23.94-21.12-23.94-18.56,0-30.08,14.59-30.08,31.23v23.3h-11.26v-63.24Z"/>
        <path class="cls-1" d="M1226.13,116.31h11.26v63.24h-11.26v-63.24Z"/>
        <path class="cls-1" d="M1258.77,205.65v-9.86c2.05.77,6.02,1.66,10.88,1.66,8.45,0,12.54-3.07,20.86-17.92h-2.18l-39.04-63.24h13.44l32.64,53.64h.26l28.93-53.64h12.29l-35.2,64.39c-10.88,19.84-17.15,26.75-32,26.75-4.74,0-8.96-1.02-10.88-1.79Z"/>
        <path class="cls-1" d="M1348.75,116.31h11.26v63.24h-11.26v-63.24Z"/>
        <path class="cls-1" d="M1376.65,89.94h11.26v89.6h-11.26v-89.6Z"/>
        <path class="cls-1" d="M1402.25,147.16c0-18.05,14.98-32.13,41.86-32.13,19.46,0,30.34,5.25,33.28,15.62h.13v-40.71h11.26v89.6h-11.26c.38-5.76.51-12.42.64-17.92h-.26c-3.2,11.65-14.46,19.2-33.79,19.2-26.37,0-41.86-13.06-41.86-33.67ZM1477.52,148.05v-2.05c0-12.03-10.62-20.99-33.41-20.99-20.48,0-30.59,9.47-30.59,22.14,0,14.59,11.39,23.68,30.59,23.68,22.66,0,33.41-13.18,33.41-22.78Z"/>
        <path class="cls-1" d="M1505.41,116.31h11.26v63.24h-11.26v-63.24Z"/>
        <path class="cls-1" d="M1531.27,172.76l51.07-46.21v-.26h-50.05v-9.98h67.2v6.78l-51.07,46.34v.13h51.07v9.98h-68.23v-6.78Z"/>
      </g>
    </g>
  </g>
</svg>