<?xml version="1.0" encoding="UTF-8"?>
<svg id="Layer_2" data-name="Layer 2" xmlns="http://www.w3.org/2000/svg" viewBox="0 0 269.5 269.48">
  <defs>
    <style>
      .cls-1 {
        fill: #191919;
      }
    </style>
  </defs>
  <g id="Layer_1-2" data-name="Layer 1">
    <g>
      <path class="cls-1" d="M134.74,255.57c-66.98,0-121.41-54.79-120.82-121.91.57-65.08,53.22-118.39,118.29-119.73,60.63-1.25,111.5,42.42,121.55,99.94h14.1C257.83,49.62,202.23.26,135.27,0,61.06-.29.19,60.19,0,134.39c-.19,74.46,60.32,135.09,134.74,135.09,67.2,0,123.07-49.44,133.12-113.87h-14.1c-9.91,56.71-59.51,99.96-119.02,99.96Z"/>
      <path class="cls-1" d="M269.33,127.79h-100.38c-9.85,0-16.01-10.66-11.08-19.2l36.22-62.74c-3.85-2.57-7.86-4.91-12.03-6.98l-36.23,62.76c-4.93,8.53-17.24,8.53-22.17,0l-36.23-62.76c-4.17,2.07-8.19,4.4-12.03,6.98l36.22,62.74c4.93,8.53-1.23,19.2-11.08,19.2H28.04c-.15,2.3-.22,4.62-.22,6.96s.08,4.65.22,6.96h72.48c9.85,0,16.01,10.66,11.08,19.2l-36.22,62.74c3.85,2.57,7.86,4.91,12.03,6.98l36.23-62.76c4.93-8.53,17.24-8.53,22.17,0l36.23,62.76c4.17-2.07,8.19-4.4,12.03-6.98l-36.22-62.74c-4.93-8.53,1.23-19.2,11.08-19.2h100.38c.11-2.3.17-4.63.17-6.96s-.06-4.65-.17-6.95Z"/>
    </g>
  </g>
</svg>